HIERARCHY
ROOT Hips
{
  OFFSET 0.849866 78.6569 -0.536788
  CHANNELS 6 Xposition Yposition Zposition Zrotation Xrotation Yrotation
  JOINT Bip01_Pelvis
  {
    OFFSET 0 0 0
    CHANNELS 6 Xposition Yposition Zposition Zrotation Xrotation Yrotation
    JOINT BN_Tail_01
    {
      OFFSET -5.52397 -0.332285 0
      CHANNELS 6 Xposition Yposition Zposition Zrotation Xrotation Yrotation
      JOINT BN_Tail_02
      {
        OFFSET 6.48885 -2.032e-005 0
        CHANNELS 6 Xposition Yposition Zposition Zrotation Xrotation Yrotation
        JOINT BN_Tail_03
        {
          OFFSET 7.08759 1.016e-005 -0.00261112
          CHANNELS 6 Xposition Yposition Zposition Zrotation Xrotation Yrotation
          End Site
          {
            OFFSET 0 0 0
          }
        }
      }
    }
    JOINT Bip01_Spine
    {
      OFFSET 4.02227 0.398968 0
      CHANNELS 6 Xposition Yposition Zposition Zrotation Xrotation Yrotation
      JOINT BN_UpperArm_R_01
      {
        OFFSET 4.84413 -3.22857 -3.65581
        CHANNELS 6 Xposition Yposition Zposition Zrotation Xrotation Yrotation
        JOINT BN_Forearm_R_01
        {
          OFFSET 8.51614 0 0
          CHANNELS 6 Xposition Yposition Zposition Zrotation Xrotation Yrotation
          JOINT BN_hand_R_01
          {
            OFFSET 10.1924 0 0
            CHANNELS 6 Xposition Yposition Zposition Zrotation Xrotation Yrotation
            JOINT BN_Finger_R_02
            {
              OFFSET 14.5949 -1.43855 0.585079
              CHANNELS 6 Xposition Yposition Zposition Zrotation Xrotation Yrotation
              End Site
              {
                OFFSET 0 0 0
              }
            }
            JOINT BN_Finger_R_01
            {
              OFFSET 14.4623 0 0
              CHANNELS 6 Xposition Yposition Zposition Zrotation Xrotation Yrotation
              End Site
              {
                OFFSET 0 0 0
              }
            }
          }
        }
      }
      JOINT BN_UpperArm_L_01
      {
        OFFSET 4.84412 -3.22858 3.65557
        CHANNELS 6 Xposition Yposition Zposition Zrotation Xrotation Yrotation
        JOINT BN_Forearm_L_01
        {
          OFFSET 8.51611 0 0
          CHANNELS 6 Xposition Yposition Zposition Zrotation Xrotation Yrotation
          JOINT BN_hand_L_01
          {
            OFFSET 10.1924 0 0
            CHANNELS 6 Xposition Yposition Zposition Zrotation Xrotation Yrotation
            JOINT BN_Finger_L_01
            {
              OFFSET 14.4623 0 0
              CHANNELS 6 Xposition Yposition Zposition Zrotation Xrotation Yrotation
              End Site
              {
                OFFSET 0 0 0
              }
            }
            JOINT BN_Finger_L_02
            {
              OFFSET 14.5949 1.43855 0.585071
              CHANNELS 6 Xposition Yposition Zposition Zrotation Xrotation Yrotation
              End Site
              {
                OFFSET 0 0 0
              }
            }
          }
        }
      }
      JOINT Bip01_R_Thigh
      {
        OFFSET -4.03411 -0.254132 -3.45377
        CHANNELS 6 Xposition Yposition Zposition Zrotation Xrotation Yrotation
        JOINT Bip01_R_Calf
        {
          OFFSET 3.92618 0 0
          CHANNELS 6 Xposition Yposition Zposition Zrotation Xrotation Yrotation
          JOINT Bip01_R_HorseLink
          {
            OFFSET 6.12319 0 0
            CHANNELS 6 Xposition Yposition Zposition Zrotation Xrotation Yrotation
            JOINT Bip01_R_Foot
            {
              OFFSET 9.94776 0 0
              CHANNELS 6 Xposition Yposition Zposition Zrotation Xrotation Yrotation
              JOINT Bip01_R_Toe3
              {
                OFFSET 0.881252 -0.110953 0.0158496
                CHANNELS 6 Xposition Yposition Zposition Zrotation Xrotation Yrotation
                JOINT Bip01_R_Toe31
                {
                  OFFSET 2.32137 0 0
                  CHANNELS 6 Xposition Yposition Zposition Zrotation Xrotation Yrotation
                  JOINT Bip01_R_Toe32
                  {
                    OFFSET 1.63293 0 0
                    CHANNELS 6 Xposition Yposition Zposition Zrotation Xrotation Yrotation
                    JOINT Bip01_R_Toe3Nub
                    {
                      OFFSET 1.72131 0 0
                      CHANNELS 6 Xposition Yposition Zposition Zrotation Xrotation Yrotation
                      End Site
                      {
                        OFFSET 0 0 0
                      }
                    }
                  }
                }
              }
              JOINT Bip01_R_Toe2
              {
                OFFSET 0.994751 0.967285 -1.09428
                CHANNELS 6 Xposition Yposition Zposition Zrotation Xrotation Yrotation
                JOINT Bip01_R_Toe21
                {
                  OFFSET 2.20201 0 0
                  CHANNELS 6 Xposition Yposition Zposition Zrotation Xrotation Yrotation
                  JOINT Bip01_R_Toe22
                  {
                    OFFSET 1.84925 0 0
                    CHANNELS 6 Xposition Yposition Zposition Zrotation Xrotation Yrotation
                    JOINT Bip01_R_Toe2Nub
                    {
                      OFFSET 1.70976 0 0
                      CHANNELS 6 Xposition Yposition Zposition Zrotation Xrotation Yrotation
                      End Site
                      {
                        OFFSET 0 0 0
                      }
                    }
                  }
                }
              }
              JOINT Bip01_R_Toe1
              {
                OFFSET 1.3748 1.34027 -0.0712419
                CHANNELS 6 Xposition Yposition Zposition Zrotation Xrotation Yrotation
                JOINT Bip01_R_Toe11
                {
                  OFFSET 2.26122 0 0
                  CHANNELS 6 Xposition Yposition Zposition Zrotation Xrotation Yrotation
                  JOINT Bip01_R_Toe12
                  {
                    OFFSET 2.22215 0 0
                    CHANNELS 6 Xposition Yposition Zposition Zrotation Xrotation Yrotation
                    JOINT Bip01_R_Toe1Nub
                    {
                      OFFSET 1.61867 0 0
                      CHANNELS 6 Xposition Yposition Zposition Zrotation Xrotation Yrotation
                      End Site
                      {
                        OFFSET 0 0 0
                      }
                    }
                  }
                }
              }
              JOINT Bip01_R_Toe0
              {
                OFFSET 1.40695 0.687986 0.883783
                CHANNELS 6 Xposition Yposition Zposition Zrotation Xrotation Yrotation
                JOINT Bip01_R_Toe01
                {
                  OFFSET 2.26828 0 0
                  CHANNELS 6 Xposition Yposition Zposition Zrotation Xrotation Yrotation
                  JOINT Bip01_R_Toe02
                  {
                    OFFSET 2.09769 0 0
                    CHANNELS 6 Xposition Yposition Zposition Zrotation Xrotation Yrotation
                    JOINT Bip01_R_Toe0Nub
                    {
                      OFFSET 1.53753 0 0
                      CHANNELS 6 Xposition Yposition Zposition Zrotation Xrotation Yrotation
                      End Site
                      {
                        OFFSET 0 0 0
                      }
                    }
                  }
                }
              }
            }
          }
        }
      }
      JOINT Bip01_L_Thigh
      {
        OFFSET -4.03411 -0.254147 3.45377
        CHANNELS 6 Xposition Yposition Zposition Zrotation Xrotation Yrotation
        JOINT Bip01_L_Calf
        {
          OFFSET 3.92616 0 0
          CHANNELS 6 Xposition Yposition Zposition Zrotation Xrotation Yrotation
          JOINT Bip01_L_HorseLink
          {
            OFFSET 6.1232 0 0
            CHANNELS 6 Xposition Yposition Zposition Zrotation Xrotation Yrotation
            JOINT Bip01_L_Foot
            {
              OFFSET 9.94775 0 0
              CHANNELS 6 Xposition Yposition Zposition Zrotation Xrotation Yrotation
              JOINT Bip01_L_Toe3
              {
                OFFSET 0.881246 -0.110986 -0.0157582
                CHANNELS 6 Xposition Yposition Zposition Zrotation Xrotation Yrotation
                JOINT Bip01_L_Toe31
                {
                  OFFSET 2.32136 0 0
                  CHANNELS 6 Xposition Yposition Zposition Zrotation Xrotation Yrotation
                  JOINT Bip01_L_Toe32
                  {
                    OFFSET 1.63293 0 0
                    CHANNELS 6 Xposition Yposition Zposition Zrotation Xrotation Yrotation
                    JOINT Bip01_L_Toe3Nub
                    {
                      OFFSET 1.7213 0 0
                      CHANNELS 6 Xposition Yposition Zposition Zrotation Xrotation Yrotation
                      End Site
                      {
                        OFFSET 0 0 0
                      }
                    }
                  }
                }
              }
              JOINT Bip01_L_Toe2
              {
                OFFSET 0.994649 0.967162 1.09447
                CHANNELS 6 Xposition Yposition Zposition Zrotation Xrotation Yrotation
                JOINT Bip01_L_Toe21
                {
                  OFFSET 2.202 0 0
                  CHANNELS 6 Xposition Yposition Zposition Zrotation Xrotation Yrotation
                  JOINT Bip01_L_Toe22
                  {
                    OFFSET 1.84926 0 0
                    CHANNELS 6 Xposition Yposition Zposition Zrotation Xrotation Yrotation
                    JOINT Bip01_L_Toe2Nub
                    {
                      OFFSET 1.70976 0 0
                      CHANNELS 6 Xposition Yposition Zposition Zrotation Xrotation Yrotation
                      End Site
                      {
                        OFFSET 0 0 0
                      }
                    }
                  }
                }
              }
              JOINT Bip01_L_Toe1
              {
                OFFSET 1.37483 1.34021 0.0715086
                CHANNELS 6 Xposition Yposition Zposition Zrotation Xrotation Yrotation
                JOINT Bip01_L_Toe11
                {
                  OFFSET 2.26124 0 0
                  CHANNELS 6 Xposition Yposition Zposition Zrotation Xrotation Yrotation
                  JOINT Bip01_L_Toe12
                  {
                    OFFSET 2.22214 0 0
                    CHANNELS 6 Xposition Yposition Zposition Zrotation Xrotation Yrotation
                    JOINT Bip01_L_Toe1Nub
                    {
                      OFFSET 1.61867 0 0
                      CHANNELS 6 Xposition Yposition Zposition Zrotation Xrotation Yrotation
                      End Site
                      {
                        OFFSET 0 0 0
                      }
                    }
                  }
                }
              }
              JOINT Bip01_L_Toe0
              {
                OFFSET 1.40707 0.688009 -0.883564
                CHANNELS 6 Xposition Yposition Zposition Zrotation Xrotation Yrotation
                JOINT Bip01_L_Toe01
                {
                  OFFSET 2.26828 0 0
                  CHANNELS 6 Xposition Yposition Zposition Zrotation Xrotation Yrotation
                  JOINT Bip01_L_Toe02
                  {
                    OFFSET 2.0977 0 0
                    CHANNELS 6 Xposition Yposition Zposition Zrotation Xrotation Yrotation
                    JOINT Bip01_L_Toe0Nub
                    {
                      OFFSET 1.53752 0 0
                      CHANNELS 6 Xposition Yposition Zposition Zrotation Xrotation Yrotation
                      End Site
                      {
                        OFFSET 0 0 0
                      }
                    }
                  }
                }
              }
            }
          }
        }
      }
      JOINT Bip01_Spine1
      {
        OFFSET 4.90674 -0.00437896 0
        CHANNELS 6 Xposition Yposition Zposition Zrotation Xrotation Yrotation
        JOINT Bip01_Neck
        {
          OFFSET 5.56447 -1.28357 0
          CHANNELS 6 Xposition Yposition Zposition Zrotation Xrotation Yrotation
          JOINT Bip01_Neck1
          {
            OFFSET 2.79308 -0.00219964 0
            CHANNELS 6 Xposition Yposition Zposition Zrotation Xrotation Yrotation
            JOINT Bip01_Head
            {
              OFFSET 2.79272 0 0
              CHANNELS 6 Xposition Yposition Zposition Zrotation Xrotation Yrotation
              JOINT BN_Mouth_01
              {
                OFFSET 4.19089 0.0665938 0
                CHANNELS 6 Xposition Yposition Zposition Zrotation Xrotation Yrotation
                End Site
                {
                  OFFSET 0 0 0
                }
              }
              JOINT Bip01_HeadNub
              {
                OFFSET 6.95118 0 0
                CHANNELS 6 Xposition Yposition Zposition Zrotation Xrotation Yrotation
                End Site
                {
                  OFFSET 0 0 0
                }
              }
            }
          }
        }
      }
    }
  }
}
MOTION
Frames:	3
Frame Time:	0.0333333
22.8535 88.3756 3.4155 60.3337 -51.2359 146.117 0 0 0 -90.6689 4.50146 -80.9061 -5.52396 -0.332291 -7.62e-006 -21.7606 0.022522 179.974 6.48884 -1.52588e-005 -1.86265e-009 10.532 6.46927e-006 -1.88442e-005 7.08758 0 -1.86263e-009 18.487 1.32082e-005 6.2547e-006 3.98058 0.280745 0.636783 -6.32474 0.710147 4.4474 4.84412 -3.22853 -3.65581 -80.6285 -47.7164 92.5301 8.51611 0.000263215 -3.81467e-006 34.9876 -7.25989 -23.096 10.1924 -1.99663e-012 -3.8147e-006 -15.2698 0.911714 -20.5953 14.5949 -1.43856 0.585081 -46.1604 -1.51048 -33.0889 14.4623 -1.90735e-006 5.72204e-006 -2.57203 0.0877303 -18.2636 4.84413 -3.22856 3.65557 118.703 -28.2027 -51.3017 8.51611 -0.000270844 -3.81472e-006 -37.4425 4.06944 -34.2488 10.1924 7.62941e-006 -3.81469e-006 19.0012 1.21371 -18.8413 14.5949 1.43856 0.585064 15.0584 -2.2224 -28.5403 14.4623 2.18618e-006 -1.04265e-005 28.4876 -3.19989 -28.3259 -3.59712 -0.768208 -4.37344 -98.1062 7.98978 179.858 3.92618 -1.90735e-006 1.77636e-015 -75.9419 -1.42774e-005 -1.4353e-005 6.1232 -2.13163e-014 9.53675e-007 117.389 -1.97608e-006 -1.02491e-005 9.94775 -2.84219e-014 7.10543e-015 -57.9218 8.51929 1.6272 0.881242 -0.110964 0.0158138 166.305 -4.44252 -179.124 2.32137 -7.62946e-006 -7.10543e-015 45.3329 -1.37858e-005 -1.01896e-005 1.63293 1.5259e-005 -6.03961e-014 -87.5442 -1.15148e-005 1.02804e-005 1.7213 3.81478e-006 4.76837e-007 -1.05805e-005 1.09088e-005 9.55126e-006 0.994697 0.967275 -1.09432 88.599 -1.62443 38.6979 2.20199 -7.6295e-006 4.76837e-007 -12.9477 -1.12729e-005 7.01208e-006 1.84925 1.13689e-013 2.86102e-006 -35.3054 -3.01001e-005 6.91164e-007 1.70976 -7.62954e-006 -4.76838e-007 -2.1738e-007 1.8777e-006 1.02763e-005 1.37481 1.34026 -0.0713027 102.691 -0.59225 -2.62821 2.26123 7.10553e-015 -2.38419e-007 -25.7615 -1.58455e-005 -7.31498e-006 2.22213 1.42111e-014 2.38419e-007 -38.5093 -5.01008e-006 9.59854e-006 1.61866 2.84222e-014 7.10543e-015 -1.00025e-005 -1.61573e-007 1.03437e-005 1.40696 0.687974 0.883719 91.5276 -3.49466 -43.6685 2.26828 -7.6295e-006 -9.53673e-007 -37.5711 -1.96122e-005 -2.6323e-006 2.09771 -7.62953e-006 9.53674e-007 -61.0258 -5.27364e-006 1.51006e-005 1.53752 -1.95404e-014 0 -9.80926e-006 8.53778e-007 7.36533e-007 -4.13273 -0.68258 2.51275 -113.191 14.9958 -171.08 3.92618 -7.62941e-006 -4.44089e-014 -89.5371 1.63889e-005 1.04939e-005 6.12319 1.42109e-014 3.55271e-015 131.135 -4.79225e-006 -1.01071e-005 9.94775 1.52589e-005 -1.24345e-013 -43.4858 -8.93844 3.42793 0.881234 -0.110947 -0.0158142 124.424 3.89512 -177.689 2.32137 1.90737e-006 -4.76837e-007 44.4439 -9.0993e-006 -2.05967e-005 1.63292 7.6295e-006 -3.33786e-006 -43.5294 -7.34928e-008 6.98639e-006 1.7213 4.76846e-007 5.77316e-015 -179.96 -2.80611e-006 -1.02796e-005 0.994707 0.967292 1.09432 72.7083 13.8583 -36.5315 2.202 -3.81474e-006 -3.81469e-006 11.8937 7.427e-006 9.61247e-006 1.84926 2.34482e-013 3.81469e-006 -35.3055 -5.32421e-006 -2.34692e-006 1.70977 -4.76844e-007 7.10542e-015 179.96 -7.77193e-006 -1.04383e-005 1.3748 1.34026 0.0713027 73.2359 -0.777565 2.57949 2.26123 3.81474e-006 -2.6226e-006 2.32056 -4.54278e-006 5.48904e-006 2.22212 3.81474e-006 -2.38419e-007 -38.5093 -1.60627e-005 -4.30899e-006 1.61867 0 -8.88178e-016 179.96 -9.68544e-006 1.74245e-005 1.40698 0.687978 -0.883722 79.3488 -8.08511 43.1764 2.26829 1.90737e-006 1.52588e-005 0.785879 -4.19548e-006 1.59695e-006 2.0977 -1.90737e-006 -3.81469e-006 -61.0258 9.02429e-008 1.5012e-005 1.53752 -3.97912e-013 -3.81469e-006 179.96 -9.27578e-006 1.77433e-005 4.90711 -0.00430298 -0.000375748 3.60949 2.16014 -1.17287 5.56426 -1.28359 0.000253678 2.79646 -8.45235 3.1416 2.79365 -0.00201416 0.000149488 -4.23454 -5.37679 -16.8092 2.79273 1.42109e-014 3.55271e-015 34.2539 9.90916 0.875973 4.19087 0.0665818 7.86341e-006 -173.177 -0.0319977 -179.998 6.95116 -7.6294e-006 6.73239e-013 1.17479e-007 7.28266e-008 -6.16577e-009 
22.4995 88.1361 3.08863 64.4561 -54.0697 148.452 0 0 0 -90.353 4.73427 -81.5857 -5.52396 -0.332291 -7.62e-006 -23.693 0.027008 179.966 6.48884 -1.52588e-005 -1.86265e-009 10.0703 1.85249e-006 -4.56893e-005 7.08758 -7.10543e-015 -1.86263e-009 18.0253 1.30851e-005 6.36101e-006 3.9867 0.297101 0.589587 -5.75799 -0.182048 5.75865 4.84412 -3.22853 -3.65581 -74.3594 -43.3626 113.61 8.51611 0.000263215 -3.81468e-006 36.0855 -4.28307 -9.5134 10.1924 3.97905e-013 -3.8147e-006 -16.2256 1.11555 -17.3611 14.5949 -1.43856 0.58508 -47.0925 -1.36538 -44.2844 14.4623 -1.90736e-006 5.72204e-006 -2.76216 0.0171126 -23.8701 4.84413 -3.22856 3.65557 116.187 -21.9121 -41.9827 8.51611 -0.000270844 -3.81472e-006 -37.9053 4.77052 -19.5646 10.1924 7.62941e-006 -3.81469e-006 18.8292 -0.257448 -17.1409 14.5949 1.43856 0.585075 20.3932 5.66172 -33.3314 14.4623 -2.97457e-007 -2.8638e-006 28.6239 -9.49015 -38.0397 -3.51098 -0.682736 -4.42012 -98.5728 8.48066 178.746 3.92618 -1.90735e-006 3.55271e-015 -75.7412 -8.41159e-006 -1.58655e-005 6.1232 7.10545e-015 9.53675e-007 116.806 2.0664e-006 -1.21318e-005 9.94775 -1.42109e-014 7.99361e-015 -53.1296 7.81954 2.2032 0.881242 -0.110964 0.0158138 162.172 -4.49396 -179.446 2.32137 -7.62946e-006 -7.10543e-015 45.3329 9.69215e-007 4.45547e-006 1.63293 1.5259e-005 -6.21725e-014 -87.5442 -1.12169e-005 1.0304e-005 1.7213 3.81478e-006 4.76837e-007 -1.05805e-005 1.09088e-005 9.55126e-006 0.994698 0.967275 -1.09432 92.2458 1.2988 38.7079 2.20199 -7.6295e-006 4.76837e-007 -12.9475 -9.76159e-006 7.06773e-006 1.84925 1.84744e-013 2.86102e-006 -35.3054 -3.05768e-005 -4.24293e-008 1.70976 -7.62953e-006 -4.76838e-007 -2.1738e-007 1.8777e-006 1.02763e-005 1.37481 1.34026 -0.0713027 107.704 -0.819818 -2.56639 2.26123 -7.10552e-015 -2.38419e-007 -25.7614 -1.5931e-005 -6.98892e-006 2.22213 0 2.38419e-007 -38.5093 -5.03205e-006 9.59194e-006 1.61866 4.26333e-014 -5.32907e-015 -1.00025e-005 -1.61573e-007 1.03437e-005 1.40696 0.687974 0.883719 95.1824 -6.95027 -43.335 2.26828 -7.6295e-006 -9.53673e-007 -37.5711 -1.95362e-005 -2.69509e-006 2.09771 -7.62952e-006 9.53674e-007 -61.0258 3.04926e-006 1.05517e-005 1.53752 -1.42112e-014 0 -9.80929e-006 8.53778e-007 7.36536e-007 -4.20408 -0.704657 2.45248 -112.977 15.6123 -169.189 3.92618 -7.62941e-006 -5.68434e-014 -89.1141 -1.08204e-005 1.08132e-005 6.12319 1.42109e-014 0 131.439 -6.43435e-006 -8.73383e-006 9.94775 1.52589e-005 -1.10134e-013 -39.2284 -8.20174 3.32904 0.881234 -0.110947 -0.0158142 116.581 3.54425 -177.18 2.32137 1.90737e-006 -4.76837e-007 44.4439 -9.63415e-006 -2.04557e-005 1.63292 7.6295e-006 -3.33786e-006 -43.5294 4.01434e-007 7.25569e-006 1.7213 4.76846e-007 6.21725e-015 -179.96 -2.80567e-006 -1.02797e-005 0.994707 0.967292 1.09432 79.0769 9.12051 -37.8018 2.202 -3.81474e-006 -3.81469e-006 18.4532 5.87125e-006 2.89866e-006 1.84926 -7.10552e-015 3.81469e-006 -35.3055 -4.00801e-006 -1.65703e-006 1.70977 -4.76845e-007 2.13163e-014 179.96 -7.77333e-006 -1.04374e-005 1.3748 1.34026 0.0713027 81.062 -0.418853 2.66133 2.26123 3.81474e-006 -2.6226e-006 9.70311 -3.02933e-006 1.14489e-005 2.22212 3.81474e-006 -2.38419e-007 -38.5093 -1.67064e-005 -4.06311e-006 1.61867 1.42111e-014 8.88178e-015 179.96 -9.69009e-006 1.74238e-005 1.40698 0.687977 -0.883722 85.0597 -2.69364 43.7132 2.26829 1.90737e-006 1.52588e-005 10.1347 -2.19768e-006 9.87972e-006 2.0977 -1.90737e-006 -3.81469e-006 -61.0258 2.51582e-006 1.44039e-005 1.53752 -5.96868e-013 -3.81469e-006 179.96 -9.26994e-006 1.77452e-005 4.90711 -0.00430298 -0.000375748 4.41664 2.50029 -0.557573 5.56426 -1.28359 0.000253677 4.08827 -7.84533 -0.351929 2.79365 -0.00201416 0.000149488 -3.34122 -5.15153 -21.0542 2.79273 0 7.10543e-015 34.6006 8.78376 -4.1878 4.19087 0.0665818 7.86222e-006 -173.441 -0.0277863 -179.998 6.95116 -7.6294e-006 8.42437e-013 1.17479e-007 7.28266e-008 -6.16577e-009 
21.9316 87.8847 2.13908 71.6864 -62.7046 153.843 0 0 0 -90.1257 4.85901 -82.1284 -5.52396 -0.332291 -7.62e-006 -25.8487 0.0248566 179.974 6.48884 -1.52588e-005 -1.86264e-009 9.20599 6.94884e-006 -1.86841e-005 7.08758 1.42109e-014 -1.86263e-009 17.161 1.27994e-005 6.56489e-006 3.99146 0.305893 0.551879 -5.22789 -0.935897 6.64049 4.84412 -3.22853 -3.65581 -74.2009 -33.1755 127.843 8.51611 0.000263215 -3.81469e-006 36.0747 -0.78091 4.00152 10.1924 7.10544e-014 -3.8147e-006 -17.7038 0.973949 -11.6642 14.5949 -1.43856 0.585081 -48.786 -1.74496 -47.1128 14.4623 -1.90735e-006 5.72204e-006 -3.10879 0.168561 -25.1732 4.84413 -3.22856 3.65557 110.589 -15.3581 -35.4793 8.5161 -0.000270844 -3.81471e-006 -38.0914 4.78865 -6.23223 10.1924 7.62941e-006 -3.81469e-006 19.2735 -0.748712 -13.9077 14.5949 1.43855 0.585075 21.8956 8.19983 -33.9472 14.4623 -5.40463e-006 -5.37017e-006 28.0961 -11.8343 -40.4664 -3.45611 -0.602804 -4.44552 -99.0396 8.67469 177.902 3.92618 -1.90735e-006 -7.99361e-015 -75.5767 -1.4247e-005 -1.43695e-005 6.1232 2.84218e-014 9.53675e-007 116.269 -1.36884e-006 -1.03448e-005 9.94775 -4.26328e-014 -8.88179e-016 -48.993 7.23152 2.83791 0.881242 -0.110964 0.0158138 159.841 -4.51281 -179.629 2.32137 -7.62946e-006 1.77636e-015 45.3329 2.58878e-006 5.79467e-006 1.63293 1.5259e-005 -5.68434e-014 -87.5442 -1.07995e-005 1.03542e-005 1.7213 3.81478e-006 4.76837e-007 -1.05805e-005 1.09088e-005 9.55126e-006 0.994698 0.967275 -1.09432 94.2999 2.94506 38.6424 2.20199 -7.6295e-006 4.76837e-007 -12.9342 -9.00043e-006 7.35067e-006 1.84925 1.56322e-013 2.86102e-006 -35.3054 -2.72684e-005 2.25814e-007 1.70976 -7.62953e-006 -4.76838e-007 -2.1738e-007 1.8777e-006 1.02763e-005 1.37481 1.34026 -0.0713027 110.525 -0.945172 -2.52294 2.26123 7.10552e-015 -2.38419e-007 -25.7515 -1.59662e-005 -7.06083e-006 2.22213 -2.84221e-014 2.38419e-007 -38.5093 -4.83151e-006 9.65234e-006 1.61866 4.26333e-014 -8.88179e-016 -1.00025e-005 -1.61573e-007 1.03437e-005 1.40696 0.687974 0.883719 97.2587 -8.88419 -43.0584 2.26828 -7.6295e-006 -9.53673e-007 -37.5752 -1.89896e-005 -2.56666e-006 2.09771 -7.62952e-006 9.53674e-007 -61.0258 4.48029e-006 9.70467e-006 1.53752 0 -7.10542e-015 -9.80929e-006 8.53778e-007 7.36535e-007 -4.25478 -0.715618 2.41477 -112.991 15.8964 -167.915 3.92618 -7.62941e-006 -3.81917e-014 -88.781 1.69282e-005 1.01027e-005 6.12319 1.42109e-014 2.66453e-015 131.631 -6.00544e-006 -8.90881e-006 9.94775 1.52589e-005 -4.9738e-014 -37.3001 -7.83288 2.90234 0.881234 -0.110947 -0.0158142 114.157 3.42173 -177.033 2.32137 1.90737e-006 -4.76837e-007 44.4439 -9.45655e-006 -2.00408e-005 1.63292 7.6295e-006 -3.33786e-006 -43.5294 5.47875e-007 6.84201e-006 1.7213 4.76846e-007 0 -179.96 -2.80521e-006 -1.02801e-005 0.994707 0.967291 1.09432 81.0117 7.63457 -38.063 2.202 -3.81474e-006 -3.81469e-006 20.4762 7.61507e-006 8.46516e-006 1.84926 0 3.81469e-006 -35.3055 -3.20477e-006 -1.08962e-006 1.70977 -4.76845e-007 1.42108e-014 179.96 -7.77453e-006 -1.04373e-005 1.3748 1.34026 0.0713027 83.4824 -0.306017 2.67664 2.26123 3.81474e-006 -2.6226e-006 11.9783 -2.53924e-006 1.14785e-005 2.22212 3.81474e-006 -2.38419e-007 -38.5093 -1.76979e-005 -3.63846e-006 1.61867 0 -3.55271e-015 179.96 -9.68914e-006 1.74228e-005 1.40698 0.687977 -0.883722 86.8125 -1.0197 43.7621 2.26829 1.90737e-006 1.52588e-005 13.0292 -3.54116e-006 1.9466e-007 2.0977 -1.90737e-006 -3.81469e-006 -61.0258 1.46773e-006 1.4785e-005 1.53752 -5.54235e-013 -3.81469e-006 179.96 -9.27749e-006 1.77443e-005 4.90711 -0.00430298 -0.000375748 5.18293 2.82916 -0.0130392 5.56426 -1.28359 0.000253677 5.21648 -7.41578 -2.97791 2.79365 -0.00201416 0.000149488 -2.60757 -4.90873 -23.4332 2.79273 4.26326e-014 7.10543e-015 34.6758 7.05079 -7.26317 4.19087 0.0665818 7.86341e-006 -173.698 -0.041565 -179.998 6.95116 -7.6294e-006 6.78568e-013 1.17479e-007 7.28266e-008 -6.16575e-009 
